<svg width="359.3199951171875px" height="129.22490234375px" xmlns="http://www.w3.org/2000/svg" viewBox="70.34000244140626 10.387548828125006 359.3199951171875 129.22490234375" style="background: rgba(0, 0, 0, 0);" preserveAspectRatio="xMidYMid"><defs><linearGradient id="editing-sticker-gradient" x1="0.5" y1="0.2" x2="0.5" y2="0.8"><stop offset="0" stop-color="#fd9"></stop><stop offset="1" stop-color="#9df"></stop></linearGradient><filter id="editing-sticker" x="-100%" y="-100%" width="300%" height="300%"><feMorphology operator="erode" radius="1" in="SourceAlpha" result="alpha-erode"></feMorphology><feConvolveMatrix order="3,3" divisor="1" kernelMatrix="0 1 0 1 1 1 0 1 0" in="alpha-erode" result="alpha-round"></feConvolveMatrix><feMorphology operator="dilate" radius="3.5" in="alpha-round" result="dilate-shadow"></feMorphology><feGaussianBlur in="dilate-shadow" stdDeviation="1.5" result="shadow"></feGaussianBlur><feFlood flood-color="#fff" result="flood-sticker"></feFlood><feComposite operator="in" in="flood-sticker" in2="alpha-round" result="comp-sticker"></feComposite><feMorphology operator="dilate" radius="3" in="comp-sticker" result="morph-sticker"></feMorphology><feConvolveMatrix order="3,3" divisor="1" kernelMatrix="0 1 0 1 1 1 0 1 0" in="morph-sticker" result="sticker"></feConvolveMatrix><feMerge><feMergeNode in="shadow"></feMergeNode><feMergeNode in="sticker"></feMergeNode><feMergeNode in="SourceGraphic"></feMergeNode></feMerge></filter></defs><g filter="url(#editing-sticker)"><g transform="translate(127.58312559127808, 97.8799991607666)"><path d="M34.62-17.79L34.62-17.79L34.62-17.79Q30.78-17.79 28.16-19.55L28.16-19.55L28.16-19.55Q25.54-21.31 25.54-24L25.54-24L25.54-24Q25.54-27.39 29.95-30.78L29.95-30.78L29.95-30.78Q30.72-31.36 31.10-31.36L31.10-31.36L31.10-31.36Q31.49-31.36 31.49-31.10L31.49-31.10L31.49-31.10Q31.49-30.46 30.46-30.08L30.46-30.08L30.46-30.08Q26.88-27.20 26.88-24.26L26.88-24.26L26.88-24.26Q26.88-22.14 28.80-20.70L28.80-20.70L28.80-20.70Q30.72-19.26 33.60-19.26L33.60-19.26L33.60-19.26Q39.87-19.26 45.44-25.28L45.44-25.28L45.44-25.28Q48.32-28.42 48.32-32.51L48.32-32.51L48.32-32.51Q48.32-36.61 45.25-38.59L45.25-38.59L45.25-38.59Q42.69-40.38 38.34-40.38L38.34-40.38L38.34-40.38Q32.06-40.38 25.73-37.25L25.73-37.25L25.73-37.25Q17.92-33.47 11.62-25.50L11.62-25.50L11.62-25.50Q5.31-17.54 5.31-10.18L5.31-10.18L5.31-10.18Q5.31-4.35 9.28-1.18L9.28-1.18L9.28-1.18Q13.25 1.98 19.14 1.98L19.14 1.98L19.14 1.98Q25.86 1.98 32.32-1.28L32.32-1.28L32.32-1.28Q37.25-3.84 40.83-7.81L40.83-7.81L40.83-7.81Q41.86-8.96 42.43-8.96L42.43-8.96L42.43-8.96Q42.82-8.96 42.82-8.29L42.82-8.29L42.82-8.29Q42.82-7.62 42.11-6.91L42.11-6.91L42.11-6.91Q38.72-3.33 32.32 0L32.32 0L32.32 0Q24.45 4.16 16.48 4.16L16.48 4.16L16.48 4.16Q8.51 4.16 4.61-1.09L4.61-1.09L4.61-1.09Q1.98-4.54 1.98-9.34L1.98-9.34L1.98-9.34Q1.98-11.46 2.50-13.89L2.50-13.89L2.50-13.89Q4.22-22.08 11.58-29.82L11.58-29.82L11.58-29.82Q16.90-35.39 24.19-38.50L24.19-38.50L24.19-38.50Q31.49-41.60 38.02-41.60L38.02-41.60L38.02-41.60Q41.47-41.60 44.03-40.77L44.03-40.77L44.03-40.77Q51.01-38.59 51.01-32L51.01-32L51.01-32Q51.01-27.97 48.64-25.02L48.64-25.02L48.64-25.02Q42.75-17.79 34.62-17.79ZM63.17-13.57L63.17-13.57L63.17-13.57Q63.17-11.33 58.88-6.08L58.88-6.08L58.88-6.08Q53.82 0.13 50.24 0.13L50.24 0.13L49.22 0.13L49.22 0.13Q47.55 0.13 46.59-1.60L46.59-1.60L46.59-1.60Q45.82-2.82 45.82-4.29L45.82-4.29L45.82-4.29Q45.82-8.13 51.42-15.07L51.42-15.07L51.42-15.07Q57.02-22.02 60.48-22.02L60.48-22.02L60.48-22.02Q63.74-22.02 63.74-18.56L63.74-18.56L63.74-18.56Q63.74-17.66 63.42-16.26L63.42-16.26L63.42-16.26Q63.49-16.06 64.64-16.06L64.64-16.06L64.64-16.06Q65.79-16.06 68.16-17.28L68.16-17.28L68.16-17.28Q68.10-16.19 63.10-14.14L63.10-14.14L63.10-14.14Q63.17-13.89 63.17-13.57ZM59.01-16.90L59.01-16.90L59.01-16.90Q56.83-16.90 52.83-11.78L52.83-11.78L52.83-11.78Q48.83-6.66 48.83-4.22L48.83-4.22L48.83-4.22Q48.83-1.79 50.37-1.79L50.37-1.79L50.37-1.79Q53.12-1.79 57.34-6.78L57.34-6.78L57.34-6.78Q61.57-11.78 61.57-13.95L61.57-13.95L61.57-13.95Q60.54-14.53 59.01-16.90ZM66.94-3.20L66.94-3.20L66.94-3.20Q66.94-1.28 69.06-1.28L69.06-1.28L69.06-1.28Q71.17-1.28 74.50-3.52L74.50-3.52L74.50-3.52Q77.82-5.76 80.96-9.60L80.96-9.60L80.96-9.60Q81.73-10.62 82.18-10.62L82.18-10.62L82.18-10.62Q82.62-10.62 82.62-10.24L82.62-10.24L82.62-10.24Q82.62-9.86 80-6.91L80-6.91L80-6.91Q73.60 0.13 69.31 0.13L69.31 0.13L69.31 0.13Q67.20 0.13 65.73-0.86L65.73-0.86L65.73-0.86Q64.26-1.86 64.26-3.94L64.26-3.94L64.26-3.94Q64.26-6.02 65.34-8.77L65.34-8.77L65.34-8.77Q67.20-13.12 71.30-19.71L71.30-19.71L71.30-19.71Q78.78-31.87 81.92-31.87L81.92-31.87L81.92-31.87Q82.56-31.87 83.23-31.39L83.23-31.39L83.23-31.39Q83.90-30.91 83.97-30.34L83.97-30.34L83.97-30.34Q82.50-28.35 78.30-22.72L78.30-22.72L78.30-22.72Q74.11-17.09 72.51-14.62L72.51-14.62L72.51-14.62Q70.91-12.16 70.11-10.94L70.11-10.94L70.11-10.94Q69.31-9.73 68.93-9.06L68.93-9.06L68.93-9.06Q68.54-8.38 68.03-7.30L68.03-7.30L68.03-7.30Q66.94-5.12 66.94-3.20ZM82.50-3.20L82.50-3.20L82.50-3.20Q82.50-1.28 84.61-1.28L84.61-1.28L84.61-1.28Q86.72-1.28 90.05-3.52L90.05-3.52L90.05-3.52Q93.38-5.76 96.51-9.60L96.51-9.60L96.51-9.60Q97.28-10.62 97.73-10.62L97.73-10.62L97.73-10.62Q98.18-10.62 98.18-10.24L98.18-10.24L98.18-10.24Q98.18-9.86 95.55-6.91L95.55-6.91L95.55-6.91Q89.15 0.13 84.86 0.13L84.86 0.13L84.86 0.13Q82.75 0.13 81.28-0.86L81.28-0.86L81.28-0.86Q79.81-1.86 79.81-3.94L79.81-3.94L79.81-3.94Q79.81-6.02 80.90-8.77L80.90-8.77L80.90-8.77Q82.75-13.12 86.85-19.71L86.85-19.71L86.85-19.71Q94.34-31.87 97.47-31.87L97.47-31.87L97.47-31.87Q98.11-31.87 98.78-31.39L98.78-31.39L98.78-31.39Q99.46-30.91 99.52-30.34L99.52-30.34L99.52-30.34Q98.05-28.35 93.86-22.72L93.86-22.72L93.86-22.72Q89.66-17.09 88.06-14.62L88.06-14.62L88.06-14.62Q86.46-12.16 85.66-10.94L85.66-10.94L85.66-10.94Q84.86-9.73 84.48-9.06L84.48-9.06L84.48-9.06Q84.10-8.38 83.58-7.30L83.58-7.30L83.58-7.30Q82.50-5.12 82.50-3.20ZM98.82 0.83L98.82 0.83L98.82 0.83Q98.11 0.83 97.54 0.64L97.54 0.64L97.54 0.64Q93.44-0.51 93.44-3.97L93.44-3.97L93.44-3.97Q93.44-8.45 99.07-14.34L99.07-14.34L99.07-14.34Q104.70-20.22 109.18-20.22L109.18-20.22L109.18-20.22Q110.66-20.22 111.58-19.42L111.58-19.42L111.58-19.42Q112.51-18.62 112.51-17.47L112.51-17.47L112.51-17.47Q112.51-13.89 107.10-10.62L107.10-10.62L107.10-10.62Q101.70-7.36 98.30-7.36L98.30-7.36L98.30-7.36Q97.79-7.36 97.41-7.49L97.41-7.49L97.41-7.49Q96.45-5.76 96.45-3.84L96.45-3.84L96.45-3.84Q96.45-0.51 99.62-0.51L99.62-0.51L99.62-0.51Q102.78-0.51 107.84-4.80L107.84-4.80L107.84-4.80Q111.74-7.94 114.50-11.46L114.50-11.46L114.50-11.46Q115.07-12.22 115.49-12.22L115.49-12.22L115.49-12.22Q115.90-12.22 115.90-11.84L115.90-11.84L115.90-11.84Q115.90-11.46 115.39-10.75L115.39-10.75L115.39-10.75Q111.94-6.21 107.07-2.69L107.07-2.69L107.07-2.69Q102.21 0.83 98.82 0.83ZM110.91-17.60L110.91-17.60L110.91-17.60Q110.91-18.37 109.28-18.37L109.28-18.37L109.28-18.37Q107.65-18.37 104.64-15.87L104.64-15.87L104.64-15.87Q100.61-12.54 98.37-8.90L98.37-8.90L98.37-8.90Q98.75-8.77 99.20-8.77L99.20-8.77L99.20-8.77Q101.63-8.77 105.70-11.36L105.70-11.36L105.70-11.36Q109.76-13.95 110.78-17.02L110.78-17.02L110.78-17.02Q110.91-17.34 110.91-17.60ZM116.86 0.83L116.86 0.83L116.86 0.83Q116.16 0.83 115.58 0.64L115.58 0.64L115.58 0.64Q111.49-0.51 111.49-3.97L111.49-3.97L111.49-3.97Q111.49-8.45 117.12-14.34L117.12-14.34L117.12-14.34Q122.75-20.22 127.23-20.22L127.23-20.22L127.23-20.22Q128.70-20.22 129.63-19.42L129.63-19.42L129.63-19.42Q130.56-18.62 130.56-17.25L130.56-17.25L130.56-17.25Q130.56-15.87 129.73-14.37L129.73-14.37L129.73-14.37Q128.90-12.86 127.23-12.86L127.23-12.86L127.23-12.86Q125.57-12.86 125.57-13.89L125.57-13.89L125.57-13.89Q125.57-14.59 126.43-16.03L126.43-16.03L126.43-16.03Q127.30-17.47 127.30-17.57L127.30-17.57L127.30-17.57Q127.30-17.66 127.10-17.66L127.10-17.66L127.10-17.66Q125.31-17.47 122.21-15.10L122.21-15.10L122.21-15.10Q119.10-12.74 117.95-11.14L117.95-11.14L115.46-7.49L115.46-7.49Q114.82-6.46 114.53-5.06L114.53-5.06L114.53-5.06Q114.24-3.65 114.24-2.94L114.24-2.94L114.24-2.94Q114.24-2.24 115.04-1.34L115.04-1.34L115.04-1.34Q115.84-0.45 117.31-0.45L117.31-0.45L117.31-0.45Q120.51-0.45 125.25-4.19L125.25-4.19L125.25-4.19Q129.98-7.94 132.54-11.33L132.54-11.33L132.54-11.33Q132.86-11.71 133.31-11.71L133.31-11.71L133.31-11.71Q133.76-11.71 133.76-11.46L133.76-11.46L133.76-11.46Q133.76-11.20 133.44-10.82L133.44-10.82L133.44-10.82Q129.92-6.14 125.02-2.66L125.02-2.66L125.02-2.66Q120.13 0.83 116.86 0.83ZM146.82-20.61L146.82-20.61L156.03-20.74L156.03-20.74Q156.22-20.61 156.22-20.54L156.22-20.54L156.22-20.54Q156.22-19.97 148.26-18.94L148.26-18.94L148.26-18.94Q140.29-17.92 139.65-17.73L139.65-17.73L139.65-17.73Q138.43-16.64 135.17-11.23L135.17-11.23L135.17-11.23Q131.90-5.82 131.90-3.33L131.90-3.33L131.90-3.33Q131.90-0.96 135.17-0.96L135.17-0.96L135.17-0.96Q136.70-0.96 139.20-1.92L139.20-1.92L139.20-1.92Q141.70-2.88 143.04-3.71L143.04-3.71L143.04-3.71Q146.62-5.95 150.72-10.30L150.72-10.30L150.72-10.30Q151.62-11.20 151.94-11.20L151.94-11.20L151.94-11.20Q152.13-11.20 152.13-10.82L152.13-10.82L152.13-10.82Q152.13-10.43 151.17-9.28L151.17-9.28L151.17-9.28Q147.84-5.18 143.68-2.69L143.68-2.69L143.68-2.69Q138.69 0.38 134.14 0.38L134.14 0.38L134.14 0.38Q132.16 0.38 130.91-0.48L130.91-0.48L130.91-0.48Q129.66-1.34 129.66-3.97L129.66-3.97L129.66-3.97Q129.66-6.59 131.97-11.17L131.97-11.17L131.97-11.17Q134.27-15.74 135.49-17.98L135.49-17.98L135.49-17.98Q134.59-17.79 133.95-17.79L133.95-17.79L133.95-17.79Q132.10-17.79 132.10-19.26L132.10-19.26L132.10-19.26Q132.10-20.35 133.63-20.80L133.63-20.80L133.63-20.80Q133.82-20.80 134.21-20.86L134.21-20.86L137.92-20.86L137.92-20.86Q139.07-22.34 140.54-24.26L140.54-24.26L140.54-24.26Q142.34-26.56 142.98-26.56L142.98-26.56L142.98-26.56Q143.62-26.56 144.58-26.05L144.58-26.05L144.58-26.05Q145.54-25.54 145.54-24.83L145.54-24.83L145.54-24.83Q145.54-24.13 142.46-20.67L142.46-20.67L142.46-20.67Q144.13-20.61 146.82-20.61ZM170.37-19.14L170.37-19.14L171.26-19.33L171.26-19.33Q171.97-19.33 172.61-18.75L172.61-18.75L172.61-18.75Q173.25-18.18 173.25-17.86L173.25-17.86L173.25-17.86Q173.25-17.54 169.28-11.68L169.28-11.68L169.28-11.68Q165.31-5.82 165.31-3.52L165.31-3.52L165.31-3.52Q165.31-3.33 165.38-3.14L165.38-3.14L165.38-3.14Q165.70-1.66 166.78-1.66L166.78-1.66L166.78-1.66Q170.11-1.66 178.94-12.67L178.94-12.67L178.94-12.67Q179.14-12.93 179.39-12.93L179.39-12.93L179.39-12.93Q179.65-12.93 179.65-12.45L179.65-12.45L179.65-12.45Q179.65-11.97 179.07-11.20L179.07-11.20L179.07-11.20Q170.88-0.26 166.59-0.26L166.59-0.26L166.59-0.26Q166.02-0.26 165.50-0.45L165.50-0.45L165.50-0.45Q162.69-1.54 162.69-4.67L162.69-4.67L162.69-4.67Q162.69-5.76 162.94-6.85L162.94-6.85L158.98-3.01L158.98-3.01Q155.20 0.32 153.50 0.32L153.50 0.32L153.50 0.32Q151.81 0.32 150.27-0.77L150.27-0.77L150.27-0.77Q148.54-2.05 148.54-4.16L148.54-4.16L148.54-4.16Q148.54-8.83 155.07-15.33L155.07-15.33L155.07-15.33Q161.60-21.82 167.04-21.82L167.04-21.82L167.04-21.82Q169.15-21.82 169.86-20.35L169.86-20.35L169.86-20.35Q170.05-19.84 170.18-19.49L170.18-19.49L170.18-19.49Q170.30-19.14 170.37-19.14ZM151.23-3.39L151.23-3.39L151.23-3.39Q151.23-1.09 152.83-1.09L152.83-1.09L152.83-1.09Q156.54-1.09 162.94-9.22L162.94-9.22L169.73-18.56L169.73-18.56Q169.22-19.46 168.06-19.46L168.06-19.46L168.06-19.46Q164.16-19.46 157.70-13.41L157.70-13.41L157.70-13.41Q151.23-7.36 151.23-3.39ZM185.79-20.22L185.79-20.22L185.79-20.22Q187.52-20.22 187.52-18.88L187.52-18.88L187.52-18.88Q187.52-18.50 187.33-18.11L187.33-18.11L187.33-18.11Q181.57-10.11 180.42-6.02L180.42-6.02L180.42-6.02Q195.33-20.93 198.53-20.93L198.53-20.93L198.53-20.93Q198.85-20.99 199.10-20.99L199.10-20.99L199.10-20.99Q200.90-20.99 200.90-19.39L200.90-19.39L200.90-19.39Q200.90-19.07 200.77-18.75L200.77-18.75L200.77-18.75Q200.64-18.43 198.21-15.30L198.21-15.30L198.21-15.30Q195.39-11.97 193.44-8.90L193.44-8.90L193.44-8.90Q191.49-5.82 191.49-3.78L191.49-3.78L191.49-3.78Q191.49-1.73 192.38-1.73L192.38-1.73L192.38-1.73Q195.20-1.73 202.18-9.47L202.18-9.47L202.18-9.47Q202.30-9.60 202.62-10.05L202.62-10.05L202.62-10.05Q203.58-11.20 203.78-11.20L203.78-11.20L203.78-11.20Q203.97-11.20 203.97-10.56L203.97-10.56L203.97-10.56Q203.97-9.92 203.07-8.90L203.07-8.90L203.07-8.90Q195.14 0.13 191.81 0.13L191.81 0.13L191.81 0.13Q188.67 0.13 188.67-3.33L188.67-3.33L188.67-3.33Q188.67-6.78 191.23-11.26L191.23-11.26L195.33-17.92L195.33-17.92Q190.98-14.72 187.58-10.91L187.58-10.91L187.58-10.91Q184.19-7.10 181.41-3.52L181.41-3.52L181.41-3.52Q178.62 0.06 178.18 0.06L178.18 0.06L178.18 0.06Q177.22 0.06 176.67-0.74L176.67-0.74L176.67-0.74Q176.13-1.54 176.13-2.72L176.13-2.72L176.13-2.72Q176.13-3.90 176.96-5.89L176.96-5.89L176.96-5.89Q177.79-7.87 179.07-10.69L179.07-10.69L175.23-6.66L175.23-6.66Q173.82-5.25 173.47-5.25L173.47-5.25L173.47-5.25Q173.12-5.25 173.12-5.66L173.12-5.66L173.12-5.66Q173.12-6.08 173.63-6.59L173.63-6.59L173.63-6.59Q176-8.96 177.73-11.14L177.73-11.14L177.73-11.14Q179.39-13.31 184.58-19.46L184.58-19.46L184.58-19.46Q185.15-20.22 185.79-20.22ZM204.54 0.83L204.54 0.83L204.54 0.83Q203.84 0.83 203.26 0.64L203.26 0.64L203.26 0.64Q199.17-0.51 199.17-3.97L199.17-3.97L199.17-3.97Q199.17-8.45 204.80-14.34L204.80-14.34L204.80-14.34Q210.43-20.22 214.91-20.22L214.91-20.22L214.91-20.22Q216.38-20.22 217.31-19.42L217.31-19.42L217.31-19.42Q218.24-18.62 218.24-17.47L218.24-17.47L218.24-17.47Q218.24-13.89 212.83-10.62L212.83-10.62L212.83-10.62Q207.42-7.36 204.03-7.36L204.03-7.36L204.03-7.36Q203.52-7.36 203.14-7.49L203.14-7.49L203.14-7.49Q202.18-5.76 202.18-3.84L202.18-3.84L202.18-3.84Q202.18-0.51 205.34-0.51L205.34-0.51L205.34-0.51Q208.51-0.51 213.57-4.80L213.57-4.80L213.57-4.80Q217.47-7.94 220.22-11.46L220.22-11.46L220.22-11.46Q220.80-12.22 221.22-12.22L221.22-12.22L221.22-12.22Q221.63-12.22 221.63-11.84L221.63-11.84L221.63-11.84Q221.63-11.46 221.12-10.75L221.12-10.75L221.12-10.75Q217.66-6.21 212.80-2.69L212.80-2.69L212.80-2.69Q207.94 0.83 204.54 0.83ZM216.64-17.60L216.64-17.60L216.64-17.60Q216.64-18.37 215.01-18.37L215.01-18.37L215.01-18.37Q213.38-18.37 210.37-15.87L210.37-15.87L210.37-15.87Q206.34-12.54 204.10-8.90L204.10-8.90L204.10-8.90Q204.48-8.77 204.93-8.77L204.93-8.77L204.93-8.77Q207.36-8.77 211.42-11.36L211.42-11.36L211.42-11.36Q215.49-13.95 216.51-17.02L216.51-17.02L216.51-17.02Q216.64-17.34 216.64-17.60ZM238.98-19.14L238.98-19.14L239.87-19.33L239.87-19.33Q240.58-19.33 241.22-18.75L241.22-18.75L241.22-18.75Q241.86-18.18 241.86-17.86L241.86-17.86L241.86-17.86Q241.86-17.54 237.89-11.68L237.89-11.68L237.89-11.68Q233.92-5.82 233.92-3.52L233.92-3.52L233.92-3.52Q233.92-3.33 233.98-3.14L233.98-3.14L233.98-3.14Q234.30-1.66 235.39-1.66L235.39-1.66L235.39-1.66Q238.72-1.66 247.55-12.67L247.55-12.67L247.55-12.67Q247.74-12.93 248-12.93L248-12.93L248-12.93Q248.26-12.93 248.26-12.45L248.26-12.45L248.26-12.45Q248.26-11.97 247.68-11.20L247.68-11.20L247.68-11.20Q239.49-0.26 235.20-0.26L235.20-0.26L235.20-0.26Q234.62-0.26 234.11-0.45L234.11-0.45L234.11-0.45Q231.30-1.54 231.30-4.67L231.30-4.67L231.30-4.67Q231.30-5.76 231.55-6.85L231.55-6.85L227.58-3.01L227.58-3.01Q223.81 0.32 222.11 0.32L222.11 0.32L222.11 0.32Q220.42 0.32 218.88-0.77L218.88-0.77L218.88-0.77Q217.15-2.05 217.15-4.16L217.15-4.16L217.15-4.16Q217.15-8.83 223.68-15.33L223.68-15.33L223.68-15.33Q230.21-21.82 235.65-21.82L235.65-21.82L235.65-21.82Q237.76-21.82 238.46-20.35L238.46-20.35L238.46-20.35Q238.66-19.84 238.78-19.49L238.78-19.49L238.78-19.49Q238.91-19.14 238.98-19.14ZM219.84-3.39L219.84-3.39L219.84-3.39Q219.84-1.09 221.44-1.09L221.44-1.09L221.44-1.09Q225.15-1.09 231.55-9.22L231.55-9.22L238.34-18.56L238.34-18.56Q237.82-19.46 236.67-19.46L236.67-19.46L236.67-19.46Q232.77-19.46 226.30-13.41L226.30-13.41L226.30-13.41Q219.84-7.36 219.84-3.39Z" fill="url(#editing-sticker-gradient)" stroke="#000" stroke-width="2.5"></path></g></g><style>text {
  font-size: 64px;
  font-family: Arial Black;
  dominant-baseline: central;
  text-anchor: middle;
}</style></svg>